#N canvas 5821 963 1281 881 12;
#X obj 54 107 adc~;
#X obj 55 604 dac~;
#X obj 781 107 metro 500;
#X obj 781 174 int;
#X msg 799 137 0;
#X obj 836 175 +;
#X obj 854 107 1;
#X obj 781 25 loadbang;
#X obj 713 255 == 0;
#X obj 762 255 == 1;
#X obj 808 255 == 2;
#X obj 852 254 == 3;
#X obj 896 254 == 4;
#X obj 939 254 == 5;
#X obj 984 254 == 6;
#X obj 1028 254 == 7;
#X obj 781 80 tgl 15 0 empty empty empty 17 7 0 10 -262144 -1 -1 0
1;
#X obj 932 168 sel 1;
#X obj 762 432 s led_time_green @hv_param;
#X obj 713 455 s led_freq_green @hv_param;
#X obj 808 409 s led_illum_1_green @hv_param;
#X obj 852 385 s led_illum_2_green @hv_param;
#X obj 939 334 s led_illum_3_green @hv_param;
#X obj 896 359 s led_illum_4_green @hv_param;
#X obj 984 309 s led_illum_6_green @hv_param;
#X obj 1028 285 s led_illum_8_green @hv_param;
#X obj 932 135 == 7;
#X obj 54 155 *~;
#X obj 80 186 *~;
#X obj 852 24 r sw_shift @hv_param;
#X obj 918 48 r sw_shift_fall @hv_param;
#X msg 863 72 500;
#X obj 676 622 s led_freq_red @hv_param;
#X obj 676 588 *;
#X obj 722 564 *;
#X obj 722 598 s led_time_red @hv_param;
#X obj 766 539 *;
#X obj 766 571 s led_illum_1_red @hv_param;
#X obj 809 506 *;
#X obj 851 481 *;
#X obj 907 456 *;
#X obj 961 434 *;
#X obj 1026 411 *;
#X obj 809 538 s led_illum_2_red @hv_param;
#X obj 850 513 s led_illum_4_red @hv_param;
#X obj 907 488 s led_illum_3_red @hv_param;
#X obj 961 466 s led_illum_6_red @hv_param;
#X obj 1026 443 s led_illum_8_red @hv_param;
#X obj 140 31 r ctrl_warp @hv_param;
#X obj 139 102 r ctrl_time @hv_param;
#X obj 624 757 *;
#X obj 670 733 *;
#X obj 714 708 *;
#X obj 757 675 *;
#X obj 799 650 *;
#X obj 855 625 *;
#X obj 909 603 *;
#X obj 974 580 *;
#X obj 139 69 +;
#X obj 175 69 r cv_warp @hv_param;
#X obj 139 139 +;
#X obj 172 139 r cv_time @hv_param;
#X obj 459 295 r ctrl_blur @hv_param;
#X obj 493 327 r cv_blur @hv_param;
#X obj 459 327 +;
#X obj 412 476 r ctrl_reflect @hv_param;
#X obj 412 513 +;
#X obj 447 513 r cv_reflect @hv_param;
#X obj 442 123 r sw_freeze_press @hv_param;
#X obj 517 186 r sw_reverse_press @hv_param;
#X obj 624 791 s led_freq_blue @hv_param;
#X obj 670 767 s led_time_blue @hv_param;
#X obj 714 740 s led_illum_1_blue @hv_param;
#X obj 756 708 s led_illum_2_blue @hv_param;
#X obj 798 682 s led_illum_4_blue @hv_param;
#X obj 855 657 s led_illum_3_blue @hv_param;
#X obj 909 636 s led_illum_6_blue @hv_param;
#X obj 974 612 s led_illum_8_blue @hv_param;
#X msg 825 73 100;
#X obj 140 304 osc~;
#X obj 140 268 * 20000;
#X obj 140 242 +;
#X obj 158 210 r cv_atmosphere @hv_param;
#X obj 140 182 r ctrl_atmosphere @hv_param;
#X obj 188 303 r ctrl_mix @hv_param;
#X obj 206 335 r cv_mix @hv_param;
#X obj 188 367 +;
#X obj 140 512 *~;
#X obj 188 404 * -1;
#X obj 188 437 + 1;
#X obj 81 490 *~;
#X obj 55 460 *~;
#X obj 56 549 +~;
#X obj 81 573 +~;
#X obj 713 421 +;
#X obj 762 401 +;
#X obj 137 366 *~ 0.5;
#X obj 442 157 +;
#X obj 474 157 r gate_freeze @hv_param;
#X obj 517 216 +;
#X obj 550 216 r gate_reverse @hv_param;
#X connect 0 0 27 0;
#X connect 0 1 28 0;
#X connect 2 0 3 0;
#X connect 3 0 5 0;
#X connect 3 0 8 0;
#X connect 3 0 9 0;
#X connect 3 0 10 0;
#X connect 3 0 11 0;
#X connect 3 0 12 0;
#X connect 3 0 13 0;
#X connect 3 0 14 0;
#X connect 3 0 15 0;
#X connect 3 0 26 0;
#X connect 4 0 3 1;
#X connect 5 0 3 1;
#X connect 6 0 5 1;
#X connect 7 0 16 0;
#X connect 7 0 6 0;
#X connect 8 0 33 0;
#X connect 8 0 50 0;
#X connect 8 0 94 1;
#X connect 9 0 34 0;
#X connect 9 0 51 0;
#X connect 9 0 95 1;
#X connect 10 0 20 0;
#X connect 10 0 36 0;
#X connect 10 0 52 0;
#X connect 11 0 21 0;
#X connect 11 0 38 0;
#X connect 11 0 53 0;
#X connect 12 0 23 0;
#X connect 12 0 39 0;
#X connect 12 0 54 0;
#X connect 13 0 22 0;
#X connect 13 0 40 0;
#X connect 13 0 55 0;
#X connect 14 0 24 0;
#X connect 14 0 41 0;
#X connect 14 0 56 0;
#X connect 15 0 25 0;
#X connect 15 0 42 0;
#X connect 15 0 57 0;
#X connect 16 0 2 0;
#X connect 17 0 4 0;
#X connect 26 0 17 0;
#X connect 27 0 91 0;
#X connect 28 0 90 0;
#X connect 29 0 78 0;
#X connect 30 0 31 0;
#X connect 31 0 2 1;
#X connect 33 0 32 0;
#X connect 34 0 35 0;
#X connect 36 0 37 0;
#X connect 38 0 43 0;
#X connect 39 0 44 0;
#X connect 40 0 45 0;
#X connect 41 0 46 0;
#X connect 42 0 47 0;
#X connect 48 0 58 0;
#X connect 49 0 60 0;
#X connect 50 0 70 0;
#X connect 51 0 71 0;
#X connect 52 0 72 0;
#X connect 53 0 73 0;
#X connect 54 0 74 0;
#X connect 55 0 75 0;
#X connect 56 0 76 0;
#X connect 57 0 77 0;
#X connect 58 0 27 1;
#X connect 59 0 58 1;
#X connect 60 0 28 1;
#X connect 61 0 60 1;
#X connect 62 0 64 0;
#X connect 63 0 64 1;
#X connect 64 0 33 1;
#X connect 64 0 34 1;
#X connect 64 0 36 1;
#X connect 64 0 38 1;
#X connect 64 0 39 1;
#X connect 64 0 40 1;
#X connect 64 0 41 1;
#X connect 64 0 42 1;
#X connect 65 0 66 0;
#X connect 66 0 50 1;
#X connect 66 0 51 1;
#X connect 66 0 52 1;
#X connect 66 0 53 1;
#X connect 66 0 54 1;
#X connect 66 0 55 1;
#X connect 66 0 56 1;
#X connect 66 0 57 1;
#X connect 67 0 66 1;
#X connect 68 0 97 0;
#X connect 69 0 99 0;
#X connect 78 0 2 1;
#X connect 79 0 96 0;
#X connect 80 0 79 0;
#X connect 81 0 80 0;
#X connect 82 0 81 1;
#X connect 83 0 81 0;
#X connect 84 0 86 0;
#X connect 85 0 86 1;
#X connect 86 0 87 1;
#X connect 86 0 88 0;
#X connect 87 0 92 1;
#X connect 87 0 93 1;
#X connect 88 0 89 0;
#X connect 89 0 90 1;
#X connect 89 0 91 1;
#X connect 90 0 93 0;
#X connect 91 0 92 0;
#X connect 92 0 1 0;
#X connect 93 0 1 1;
#X connect 94 0 19 0;
#X connect 95 0 18 0;
#X connect 96 0 87 0;
#X connect 97 0 94 0;
#X connect 98 0 97 1;
#X connect 99 0 95 0;
#X connect 100 0 99 1;
